<svg width="32" height="32" viewBox="0 0 32 32" fill="none" xmlns="http://www.w3.org/2000/svg">
<path fill-rule="evenodd" clip-rule="evenodd" d="M5.71649 29.2178L2.27712 24.9331C1.44962 23.9023 1.00049 22.6346 1.00049 21.3299V5.81499C1.00049 3.86064 2.56407 2.23897 4.5812 2.10125L20.5326 1.01218C21.6915 0.933062 22.8433 1.24109 23.7952 1.8847L29.3997 5.67391C30.4029 6.35219 31.0005 7.46099 31.0005 8.64426V26.2832C31.0005 28.1958 29.463 29.7793 27.4881 29.9009L9.78382 30.9907C8.20782 31.0877 6.68448 30.4237 5.71649 29.2178Z" fill="white"/>
<path d="M11.2486 13.5787V13.3756C11.2486 12.8607 11.661 12.4337 12.1924 12.3982L16.0638 12.1397L21.4175 20.0235V13.1041L20.0395 12.9204V12.824C20.0395 12.303 20.4613 11.8732 20.9996 11.8456L24.5221 11.6652V12.1721C24.5221 12.41 24.3451 12.6136 24.1026 12.6546L23.2549 12.798V24.0037L22.1911 24.3695C21.3023 24.6752 20.3129 24.348 19.8041 23.5803L14.6065 15.7372V23.223L16.2063 23.5291L16.1841 23.6775C16.1142 24.1423 15.7129 24.4939 15.2275 24.5155L11.2486 24.6926C11.196 24.1927 11.5706 23.7456 12.0874 23.6913L12.6108 23.6363V13.6552L11.2486 13.5787Z" fill="black"/>
<path fill-rule="evenodd" clip-rule="evenodd" d="M20.6754 2.96678L4.72396 4.05585C3.76848 4.12109 3.02783 4.88925 3.02783 5.81499V21.3299C3.02783 22.1997 3.32725 23.0448 3.87892 23.7321L7.31828 28.0167C7.87437 28.7094 8.74948 29.0909 9.65484 29.0352L27.3591 27.9454C28.2665 27.8895 28.9729 27.1619 28.9729 26.2832V8.64426C28.9729 8.10059 28.6984 7.59115 28.2374 7.27951L22.6329 3.49029C22.0618 3.10413 21.3707 2.91931 20.6754 2.96678ZM5.51496 6.057C5.2931 5.89274 5.39868 5.55055 5.67739 5.53056L20.7827 4.44711C21.264 4.41259 21.7422 4.54512 22.1314 4.82088L25.1622 6.96813C25.2772 7.04965 25.2233 7.22563 25.0808 7.23338L9.08436 8.10336C8.60026 8.12969 8.12241 7.98747 7.7375 7.7025L5.51496 6.057ZM8.33406 10.8307C8.33406 10.311 8.7539 9.88177 9.29076 9.85253L26.2035 8.93145C26.7268 8.90296 27.1672 9.30534 27.1672 9.81182V25.0853C27.1672 25.604 26.7489 26.0328 26.2131 26.0633L9.40737 27.0195C8.82509 27.0527 8.33406 26.6052 8.33406 26.0415V10.8307Z" fill="black"/>
</svg>
