<svg width="32" height="32" viewBox="0 0 32 32" fill="none" xmlns="http://www.w3.org/2000/svg">
<path fill-rule="evenodd" clip-rule="evenodd" d="M13.0169 2C10.8198 2 9.03874 3.72453 9.03874 5.85185V8.51852H15.924V9.25926H5.97863C3.78156 9.25926 2.00049 10.9838 2.00049 13.1111L2.00049 18.8889C2.00049 21.0162 3.78156 22.7407 5.97863 22.7407H8.27371V19.4815C8.27371 17.3542 10.0548 15.6296 12.2518 15.6296H19.5961C21.4552 15.6296 22.9622 14.1704 22.9622 12.3704V5.85185C22.9622 3.72453 21.1812 2 18.9841 2H13.0169ZM12.0988 6.74074C12.8594 6.74074 13.4759 6.14378 13.4759 5.40741C13.4759 4.67103 12.8594 4.07407 12.0988 4.07407C11.3383 4.07407 10.7218 4.67103 10.7218 5.40741C10.7218 6.14378 11.3383 6.74074 12.0988 6.74074Z" fill="url(#paint0_linear)"/>
<path fill-rule="evenodd" clip-rule="evenodd" d="M18.9842 30C21.1812 30 22.9623 28.2755 22.9623 26.1482V23.4815L16.0771 23.4815L16.0771 22.7408L26.0224 22.7408C28.2195 22.7408 30.0006 21.0162 30.0006 18.8889V13.1111C30.0006 10.9838 28.2195 9.25928 26.0224 9.25928L23.7273 9.25928V12.5185C23.7273 14.6459 21.9463 16.3704 19.7492 16.3704L12.4049 16.3704C10.5459 16.3704 9.03882 17.8296 9.03882 19.6296L9.03882 26.1482C9.03882 28.2755 10.8199 30 13.017 30H18.9842ZM19.9022 25.2593C19.1417 25.2593 18.5252 25.8562 18.5252 26.5926C18.5252 27.329 19.1417 27.9259 19.9022 27.9259C20.6627 27.9259 21.2792 27.329 21.2792 26.5926C21.2792 25.8562 20.6627 25.2593 19.9022 25.2593Z" fill="url(#paint1_linear)"/>
<defs>
<linearGradient id="paint0_linear" x1="12.4814" y1="2" x2="12.4814" y2="22.7407" gradientUnits="userSpaceOnUse">
<stop stop-color="#327EBD"/>
<stop offset="1" stop-color="#1565A7"/>
</linearGradient>
<linearGradient id="paint1_linear" x1="19.5197" y1="9.25928" x2="19.5197" y2="30" gradientUnits="userSpaceOnUse">
<stop stop-color="#FFDA4B"/>
<stop offset="1" stop-color="#F9C600"/>
</linearGradient>
</defs>
</svg>
