<svg width="32" height="32" viewBox="0 0 32 32" fill="none" xmlns="http://www.w3.org/2000/svg">
<path d="M26.5007 14.9996C27.8813 14.9996 29.0005 13.8804 29.0005 12.4998C29.0005 11.1192 27.8812 10 26.5006 10C25.1199 10 24.0005 11.1193 24.0005 12.5V14.9996H26.5007ZM19.5005 14.9996C20.8812 14.9996 22.0005 13.8803 22.0005 12.4996V5.5C22.0005 4.11929 20.8812 3 19.5005 3C18.1198 3 17.0005 4.11929 17.0005 5.5V12.4996C17.0005 13.8803 18.1198 14.9996 19.5005 14.9996Z" fill="#2EB67D"/>
<path d="M5.50027 17.0004C4.11968 17.0004 3.00049 18.1196 3.00049 19.5002C3.00049 20.8808 4.11979 22 5.50038 22C6.88109 22 8.00049 20.8807 8.00049 19.5V17.0004H5.50027ZM12.5005 17.0004C11.1198 17.0004 10.0005 18.1197 10.0005 19.5004V26.5C10.0005 27.8807 11.1198 29 12.5005 29C13.8812 29 15.0005 27.8807 15.0005 26.5V19.5004C15.0005 18.1197 13.8812 17.0004 12.5005 17.0004Z" fill="#E01E5A"/>
<path d="M17.0007 26.5002C17.0007 27.8808 18.1199 29 19.5005 29C20.8811 29 22.0002 27.8807 22.0002 26.5001C22.0002 25.1194 20.881 24 19.5002 24L17.0007 24L17.0007 26.5002ZM17.0007 19.5C17.0007 20.8807 18.12 22 19.5007 22L26.5002 22C27.881 22 29.0002 20.8807 29.0002 19.5C29.0002 18.1193 27.881 17 26.5002 17L19.5007 17C18.12 17 17.0007 18.1193 17.0007 19.5Z" fill="#ECB22E"/>
<path d="M15.0003 5.49979C15.0003 4.11919 13.8811 3 12.5005 3C11.1199 3 10.0007 4.1193 10.0007 5.49989C10.0007 6.88061 11.12 8 12.5007 8L15.0003 8L15.0003 5.49979ZM15.0003 12.5C15.0003 11.1193 13.881 10 12.5003 10L5.50073 10C4.12002 10 3.00073 11.1193 3.00073 12.5C3.00073 13.8807 4.12002 15 5.50073 15L12.5003 15C13.881 15 15.0003 13.8807 15.0003 12.5Z" fill="#36C5F0"/>
</svg>
