<svg width="32" height="32" viewBox="0 0 32 32" fill="none" xmlns="http://www.w3.org/2000/svg">
<path fill-rule="evenodd" clip-rule="evenodd" d="M6.31613 20.1685L4.85135 20.6944L4.77271 24.9777L9.84327 23.157C8.10413 22.5827 6.8341 21.5724 6.31613 20.1685Z" fill="#FDBD39"/>
<path fill-rule="evenodd" clip-rule="evenodd" d="M7.08279 15.6382L2.00049 17.4632L4.85145 20.6945L6.31623 20.1685C5.79978 18.7686 6.11827 17.1862 7.08279 15.6382Z" fill="#F69833"/>
<path fill-rule="evenodd" clip-rule="evenodd" d="M15.6354 9.45743C9.16357 11.7813 4.99123 16.5768 6.31624 20.1683L29.7528 11.7526C28.4278 8.16108 22.1072 7.1335 15.6354 9.45743Z" fill="#FECF33"/>
<path fill-rule="evenodd" clip-rule="evenodd" d="M20.4336 22.4633C26.9054 20.1394 31.0856 15.3652 29.7527 11.7524L6.31616 20.1681C7.649 23.7809 13.9617 24.7872 20.4336 22.4633Z" fill="#EE6723"/>
<path fill-rule="evenodd" clip-rule="evenodd" d="M29.7527 11.7524L6.31616 20.1681C6.77508 21.4121 8.52513 22.0249 10.9806 22.0249C13.3746 22.0249 16.439 21.4429 19.6339 20.2956C26.1057 17.9717 30.6591 14.2091 29.7527 11.7524Z" fill="#F69833"/>
<path fill-rule="evenodd" clip-rule="evenodd" d="M25.0882 9.896C22.6943 9.896 19.6298 10.4781 16.435 11.6253C9.96316 13.9492 5.40978 17.7118 6.31613 20.1685L29.7527 11.7528C29.2938 10.5088 27.5437 9.896 25.0882 9.896Z" fill="#FDBD39"/>
<path fill-rule="evenodd" clip-rule="evenodd" d="M23.794 25.2045H23.7939C23.1043 25.2045 22.087 24.5923 20.7702 23.3849C19.2124 21.9564 17.4279 19.8641 15.7453 17.4934C14.0628 15.1229 12.6803 12.7529 11.8525 10.82C10.9505 8.71365 10.8219 7.41852 11.4702 6.97058C11.6124 6.87246 11.7837 6.82275 11.9795 6.82275C12.5069 6.82275 13.5345 7.20869 15.4346 9.04742L15.4762 9.0876L15.4705 9.14475C15.4575 9.27685 15.4456 9.41012 15.4349 9.54093L15.4137 9.80068L15.2273 9.61607C13.18 7.58864 12.2787 7.36976 11.9862 7.36976C11.9028 7.36976 11.8364 7.38643 11.7888 7.41934C11.5076 7.61357 11.4895 8.56488 12.3639 10.6068C13.177 12.5052 14.5394 14.8393 16.2002 17.1792C17.861 19.5193 19.6182 21.5806 21.1482 22.9836C22.7981 24.4964 23.5416 24.6598 23.7846 24.6598C23.8686 24.6598 23.9368 24.642 23.9874 24.6071C24.284 24.4022 24.2844 23.3831 23.3092 21.1853L23.2644 21.0844L23.3624 21.0317C23.4604 20.979 23.5552 20.927 23.6441 20.8774L23.7615 20.8118L23.8156 20.9337C24.5071 22.4909 25.1535 24.4702 24.3059 25.0558C24.163 25.1545 23.9908 25.2045 23.794 25.2045ZM23.7939 24.9643H23.794L23.7939 25.0844L23.7939 24.9643Z" fill="#EE6723"/>
<path fill-rule="evenodd" clip-rule="evenodd" d="M20.5908 22.398L20.581 22.5177C20.4174 24.5077 19.9866 26.9002 18.8633 26.997C18.8407 26.999 18.8173 27 18.7938 27C18.0308 27 17.3089 25.9253 16.6482 23.8058C16.0231 21.8006 15.538 19.1084 15.2823 16.225C15.0266 13.3422 15.0304 10.6077 15.2931 8.52535C15.5794 6.25623 16.1244 5.07122 16.913 5.0032C16.9363 5.00109 16.9604 5 16.9843 5C17.5379 5 18.3721 5.61611 19.2262 8.48587L18.6685 8.59167C18.3834 7.63267 18.0726 6.8527 17.7641 6.31674C17.4787 5.821 17.2012 5.548 16.9827 5.548C16.9756 5.548 16.9683 5.54829 16.9612 5.54889C16.6194 5.5784 16.1216 6.39336 15.8441 8.59302C15.5861 10.638 15.583 13.3315 15.8353 16.1773C16.0878 19.0235 16.565 21.6756 17.1789 23.6448C17.4538 24.5268 17.7554 25.2537 18.0509 25.7469C18.3235 26.2017 18.5873 26.4522 18.7937 26.4522C18.8008 26.4522 18.8078 26.4519 18.8149 26.4513C19.1419 26.4231 19.7582 25.5751 20.0176 22.5913L20.5908 22.398Z" fill="#EE6723"/>
</svg>
