<svg width="32" height="32" viewBox="0 0 32 32" fill="none" xmlns="http://www.w3.org/2000/svg">
<path d="M2.00049 11.6C2.00049 8.23969 2.00049 6.55953 2.65445 5.27606C3.22969 4.14708 4.14757 3.2292 5.27655 2.65396C6.56002 2 8.24017 2 11.6005 2H20.4005C23.7608 2 25.441 2 26.7244 2.65396C27.8534 3.2292 28.7713 4.14708 29.3465 5.27606C30.0005 6.55953 30.0005 8.23969 30.0005 11.6V20.4C30.0005 23.7603 30.0005 25.4405 29.3465 26.7239C28.7713 27.8529 27.8534 28.7708 26.7244 29.346C25.441 30 23.7608 30 20.4005 30H11.6005C8.24017 30 6.56002 30 5.27655 29.346C4.14757 28.7708 3.22969 27.8529 2.65445 26.7239C2.00049 25.4405 2.00049 23.7603 2.00049 20.4V11.6Z" fill="#4087FC"/>
<path d="M8.26716 10C7.56759 10 7.00049 10.6396 7.00049 11.4286V18.3571C7.00049 20.369 8.44661 22 10.2305 22L17.7338 21.9286C18.4334 21.9286 19.0005 21.289 19.0005 20.5V13.5C19.0005 11.4881 17.2844 10 15.5005 10L8.26716 10Z" fill="white"/>
<path d="M20.7127 12.7276C20.26 13.1752 20.0005 13.8211 20.0005 14.5V17.3993C20.0005 18.0782 20.26 18.7242 20.7127 19.1717L23.5293 21.6525C24.1024 22.2191 25.0005 21.7601 25.0005 20.9005V11.1352C25.0005 10.2755 24.1024 9.81654 23.5293 10.3832L20.7127 12.7276Z" fill="white"/>
</svg>
