<svg width="85" height="35" viewBox="0 0 85 35" fill="none" xmlns="http://www.w3.org/2000/svg">
<path d="M33.99 17.5C33.99 26.613 26.6047 34 17.495 34C8.38534 34 1 26.613 1 17.5C1 8.38703 8.38534 1 17.495 1C26.6047 1 33.99 8.38703 33.99 17.5Z" stroke="#1BBDD4" stroke-width="2"/>
<path d="M24.0203 9.93689C24.4122 9.93689 24.7387 10.0769 25 10.3569C25.2799 10.6182 25.4199 10.9542 25.4199 11.3649V23.4609C25.4199 23.8716 25.2799 24.2169 25 24.4969C24.7387 24.7582 24.4122 24.8889 24.0203 24.8889C23.6097 24.8889 23.2738 24.7582 23.0126 24.4969C22.7513 24.2169 22.6207 23.8716 22.6207 23.4609V21.4449L23.1805 21.5289C23.1805 21.8649 23.0406 22.2382 22.7606 22.6489C22.4994 23.0596 22.1355 23.4609 21.6689 23.8529C21.2024 24.2262 20.6519 24.5436 20.0174 24.8049C19.3829 25.0476 18.7018 25.1689 17.974 25.1689C16.6864 25.1689 15.5294 24.8422 14.503 24.1889C13.4766 23.5169 12.6648 22.6022 12.0677 21.4449C11.4705 20.2876 11.1719 18.9716 11.1719 17.4969C11.1719 15.9849 11.4705 14.6596 12.0677 13.5209C12.6648 12.3636 13.4673 11.4582 14.475 10.8049C15.5014 10.1516 16.6397 9.82489 17.89 9.82489C18.6925 9.82489 19.4296 9.95556 20.1014 10.2169C20.7919 10.4782 21.389 10.8142 21.8929 11.2249C22.3967 11.6356 22.7886 12.0742 23.0685 12.5409C23.3485 12.9889 23.4884 13.4182 23.4884 13.8289L22.6207 13.9129V11.3649C22.6207 10.9729 22.7513 10.6369 23.0126 10.3569C23.2738 10.0769 23.6097 9.93689 24.0203 9.93689ZM18.3099 22.5929C19.187 22.5929 19.9521 22.3689 20.6052 21.9209C21.2771 21.4729 21.7996 20.8662 22.1728 20.1009C22.546 19.3169 22.7326 18.4489 22.7326 17.4969C22.7326 16.5262 22.546 15.6582 22.1728 14.8929C21.7996 14.1276 21.2771 13.5209 20.6052 13.0729C19.9521 12.6249 19.187 12.4009 18.3099 12.4009C17.4515 12.4009 16.6864 12.6249 16.0146 13.0729C15.3427 13.5209 14.8202 14.1276 14.447 14.8929C14.0738 15.6582 13.8872 16.5262 13.8872 17.4969C13.8872 18.4489 14.0738 19.3169 14.447 20.1009C14.8202 20.8662 15.3334 21.4729 15.9866 21.9209C16.6584 22.3689 17.4328 22.5929 18.3099 22.5929Z" fill="#002248"/>
<path d="M28.4489 22.5929C28.281 22.3316 28.2063 22.0329 28.225 21.6969C28.2436 21.3422 28.4396 21.0436 28.8128 20.8009C29.0741 20.6329 29.3447 20.5676 29.6246 20.6049C29.9232 20.6236 30.2031 20.7636 30.4643 21.0249C30.9869 21.6036 31.5654 22.0609 32.1999 22.3969C32.853 22.7329 33.6368 22.9009 34.5512 22.9009C34.9244 22.8822 35.307 22.8262 35.6989 22.7329C36.0907 22.6209 36.4266 22.4342 36.7066 22.1729C36.9865 21.8929 37.1264 21.4916 37.1264 20.9689C37.1264 20.5022 36.9772 20.1289 36.6786 19.8489C36.38 19.5689 35.9881 19.3449 35.5029 19.1769C35.0177 18.9902 34.4952 18.8222 33.9354 18.6729C33.3382 18.5049 32.7317 18.3182 32.1159 18.1129C31.5187 17.9076 30.9775 17.6462 30.4923 17.3289C30.0071 16.9929 29.6059 16.5636 29.2887 16.0409C28.9901 15.5182 28.8408 14.8742 28.8408 14.1089C28.8408 13.2316 29.0834 12.4756 29.5686 11.8409C30.0725 11.2062 30.7163 10.7116 31.5 10.3569C32.3025 10.0022 33.1702 9.82489 34.1033 9.82489C34.6445 9.82489 35.2137 9.89956 35.8108 10.0489C36.408 10.1796 36.9865 10.3942 37.5463 10.6929C38.1062 10.9916 38.5914 11.3836 39.0019 11.8689C39.1885 12.1116 39.2912 12.4009 39.3098 12.7369C39.3471 13.0729 39.1979 13.3716 38.862 13.6329C38.638 13.8196 38.3674 13.9036 38.0502 13.8849C37.7329 13.8662 37.4717 13.7636 37.2664 13.5769C36.9118 13.1289 36.4546 12.7836 35.8948 12.5409C35.335 12.2796 34.7005 12.1489 33.9913 12.1489C33.6368 12.1489 33.2635 12.2049 32.8717 12.3169C32.4984 12.4102 32.1812 12.5876 31.9199 12.8489C31.6587 13.1102 31.528 13.4929 31.528 13.9969C31.528 14.4636 31.6773 14.8369 31.9759 15.1169C32.2932 15.3969 32.7037 15.6302 33.2076 15.8169C33.7114 16.0036 34.2619 16.1716 34.8591 16.3209C35.4376 16.4702 36.0068 16.6476 36.5666 16.8529C37.1451 17.0582 37.6583 17.3289 38.1062 17.6649C38.5727 17.9822 38.9459 18.4022 39.2258 18.9249C39.5244 19.4289 39.6737 20.0729 39.6737 20.8569C39.6737 21.7716 39.4031 22.5556 38.862 23.2089C38.3394 23.8436 37.6676 24.3289 36.8465 24.6649C36.0441 25.0009 35.195 25.1689 34.2993 25.1689C33.2356 25.1689 32.1719 24.9822 31.1082 24.6089C30.0631 24.2169 29.1767 23.5449 28.4489 22.5929Z" fill="#002248"/>
<path d="M50.1018 9.90889C51.4081 9.90889 52.5651 10.2356 53.5729 10.8889C54.5992 11.5422 55.411 12.4382 56.0082 13.5769C56.6053 14.6969 56.9039 16.0036 56.9039 17.4969C56.9039 18.9902 56.6053 20.3156 56.0082 21.4729C55.411 22.6116 54.6086 23.5076 53.6008 24.1609C52.5931 24.8142 51.4548 25.1409 50.1858 25.1409C49.4767 25.1409 48.8049 25.0289 48.1704 24.8049C47.5359 24.5809 46.9761 24.2916 46.4909 23.9369C46.0057 23.5636 45.6045 23.1716 45.2872 22.7609C44.9886 22.3502 44.802 21.9676 44.7274 21.6129L45.4832 21.2489V29.0609C45.4832 29.4716 45.3432 29.8076 45.0633 30.0689C44.802 30.3489 44.4754 30.4889 44.0836 30.4889C43.673 30.4889 43.3371 30.3489 43.0758 30.0689C42.8146 29.8076 42.684 29.4716 42.684 29.0609V11.5329C42.684 11.1409 42.8146 10.8049 43.0758 10.5249C43.3371 10.2449 43.673 10.1049 44.0836 10.1049C44.4754 10.1049 44.802 10.2449 45.0633 10.5249C45.3432 10.8049 45.4832 11.1409 45.4832 11.5329V13.4649L45.0353 13.2129C45.0913 12.8582 45.2686 12.4942 45.5671 12.1209C45.8657 11.7289 46.2389 11.3649 46.6868 11.0289C47.1533 10.6929 47.6759 10.4222 48.2544 10.2169C48.8515 10.0116 49.4674 9.90889 50.1018 9.90889ZM49.7939 12.4849C48.8982 12.4849 48.1144 12.7089 47.4426 13.1569C46.7895 13.5862 46.2763 14.1742 45.903 14.9209C45.5298 15.6676 45.3432 16.5262 45.3432 17.4969C45.3432 18.4489 45.5298 19.3169 45.903 20.1009C46.2763 20.8662 46.7895 21.4729 47.4426 21.9209C48.1144 22.3502 48.8982 22.5649 49.7939 22.5649C50.671 22.5649 51.4361 22.3502 52.0893 21.9209C52.7424 21.4729 53.2556 20.8662 53.6288 20.1009C54.0207 19.3169 54.2167 18.4489 54.2167 17.4969C54.2167 16.5449 54.0207 15.6956 53.6288 14.9489C53.2556 14.1836 52.7424 13.5862 52.0893 13.1569C51.4361 12.7089 50.671 12.4849 49.7939 12.4849Z" fill="#002248"/>
<path d="M61.3326 24.8889C60.922 24.8889 60.5861 24.7582 60.3248 24.4969C60.0636 24.2169 59.9329 23.8716 59.9329 23.4609V11.5889C59.9329 11.1782 60.0636 10.8422 60.3248 10.5809C60.5861 10.3009 60.922 10.1609 61.3326 10.1609C61.7244 10.1609 62.051 10.3009 62.3123 10.5809C62.5922 10.8422 62.7321 11.1782 62.7321 11.5889V14.7249L62.4522 13.5209C62.6015 12.9982 62.8255 12.5129 63.124 12.0649C63.4413 11.6169 63.8145 11.2249 64.2437 10.8889C64.6729 10.5529 65.1488 10.2916 65.6713 10.1049C66.2125 9.91822 66.7723 9.82489 67.3508 9.82489C67.836 9.82489 68.2559 9.95556 68.6105 10.2169C68.965 10.4782 69.1423 10.8049 69.1423 11.1969C69.1423 11.7009 69.0117 12.0742 68.7504 12.3169C68.4892 12.5409 68.1999 12.6529 67.8827 12.6529C67.6028 12.6529 67.3322 12.5969 67.0709 12.4849C66.8097 12.3542 66.5017 12.2889 66.1472 12.2889C65.7553 12.2889 65.3541 12.3916 64.9435 12.5969C64.533 12.8022 64.1597 13.1102 63.8238 13.5209C63.4879 13.9129 63.2173 14.3796 63.0121 14.9209C62.8255 15.4622 62.7321 16.0689 62.7321 16.7409V23.4609C62.7321 23.8716 62.5922 24.2169 62.3123 24.4969C62.051 24.7582 61.7244 24.8889 61.3326 24.8889Z" fill="#002248"/>
<path d="M85 17.5249C85 19.0182 84.6641 20.3436 83.9923 21.5009C83.3392 22.6396 82.4527 23.5356 81.3331 24.1889C80.2134 24.8422 78.9537 25.1689 77.5541 25.1689C76.1732 25.1689 74.9136 24.8422 73.7752 24.1889C72.6555 23.5356 71.7598 22.6396 71.088 21.5009C70.4348 20.3436 70.1083 19.0182 70.1083 17.5249C70.1083 16.0129 70.4348 14.6876 71.088 13.5489C71.7598 12.3916 72.6555 11.4862 73.7752 10.8329C74.9136 10.1609 76.1732 9.82489 77.5541 9.82489C78.9537 9.82489 80.2134 10.1609 81.3331 10.8329C82.4527 11.4862 83.3392 12.3916 83.9923 13.5489C84.6641 14.6876 85 16.0129 85 17.5249ZM82.2008 17.5249C82.2008 16.4982 81.9955 15.6116 81.585 14.8649C81.1744 14.0996 80.6146 13.5022 79.9055 13.0729C79.215 12.6249 78.4312 12.4009 77.5541 12.4009C76.6957 12.4009 75.9119 12.6249 75.2028 13.0729C74.5123 13.5022 73.9525 14.0996 73.5233 14.8649C73.1127 15.6116 72.9075 16.4982 72.9075 17.5249C72.9075 18.5142 73.1127 19.3916 73.5233 20.1569C73.9525 20.9222 74.5123 21.5196 75.2028 21.9489C75.9119 22.3782 76.6957 22.5929 77.5541 22.5929C78.4312 22.5929 79.215 22.3782 79.9055 21.9489C80.6146 21.5196 81.1744 20.9222 81.585 20.1569C81.9955 19.3916 82.2008 18.5142 82.2008 17.5249Z" fill="#002248"/>
</svg>
