<svg width="135" height="25" viewBox="0 0 135 25" fill="none" xmlns="http://www.w3.org/2000/svg">
<path d="M17.576 10.14C17.576 11.4573 17.3593 12.688 16.926 13.832C16.4927 14.9587 15.8773 15.9467 15.08 16.796C14.3 17.6453 13.3727 18.3127 12.298 18.798C11.2233 19.266 10.0447 19.5 8.762 19.5C7.49667 19.5 6.32667 19.266 5.252 18.798C4.17733 18.3127 3.24133 17.6453 2.444 16.796C1.664 15.9467 1.05733 14.9587 0.624 13.832C0.208 12.688 0 11.4573 0 10.14C0 8.82267 0.208 7.60067 0.624 6.474C1.05733 5.33 1.664 4.33333 2.444 3.484C3.24133 2.63467 4.17733 1.976 5.252 1.508C6.32667 1.02267 7.49667 0.779999 8.762 0.779999C10.0447 0.779999 11.2233 1.02267 12.298 1.508C13.3727 1.976 14.3 2.63467 15.08 3.484C15.8773 4.33333 16.4927 5.33 16.926 6.474C17.3593 7.60067 17.576 8.82267 17.576 10.14ZM14.768 10.14C14.768 8.85733 14.508 7.70467 13.988 6.682C13.4853 5.65933 12.7833 4.85333 11.882 4.264C10.9807 3.67467 9.94067 3.38 8.762 3.38C7.60067 3.38 6.56933 3.67467 5.668 4.264C4.76667 4.85333 4.06467 5.65933 3.562 6.682C3.05933 7.68733 2.808 8.84 2.808 10.14C2.808 11.4227 3.05933 12.5753 3.562 13.598C4.06467 14.6207 4.76667 15.4267 5.668 16.016C6.56933 16.6053 7.60067 16.9 8.762 16.9C9.94067 16.9 10.9807 16.6053 11.882 16.016C12.7833 15.4267 13.4853 14.6207 13.988 13.598C14.508 12.5753 14.768 11.4227 14.768 10.14Z" fill="#1B1C20"/>
<path d="M23.2893 17.914C23.2893 18.2953 23.1593 18.616 22.8993 18.876C22.6566 19.1187 22.3533 19.24 21.9893 19.24C21.6253 19.24 21.3133 19.1187 21.0533 18.876C20.8106 18.616 20.6893 18.2953 20.6893 17.914V1.326C20.6893 0.944666 20.8193 0.632667 21.0793 0.39C21.3393 0.13 21.6513 0 22.0153 0C22.3966 0 22.7 0.13 22.9253 0.39C23.168 0.632667 23.2893 0.944666 23.2893 1.326V17.914Z" fill="#1B1C20"/>
<path d="M32.4691 5.252C33.2145 5.252 33.8991 5.37333 34.5231 5.616C35.1471 5.85867 35.6845 6.17067 36.1351 6.552C36.6031 6.916 36.9671 7.29733 37.2271 7.696C37.4871 8.09467 37.6171 8.44133 37.6171 8.736L37.0191 8.762V6.682C37.0191 6.318 37.1405 6.006 37.3831 5.746C37.6258 5.486 37.9378 5.356 38.3191 5.356C38.7005 5.356 39.0125 5.486 39.2551 5.746C39.4978 5.98867 39.6191 6.30067 39.6191 6.682V18.148C39.6191 19.6213 39.3071 20.8173 38.6831 21.736C38.0591 22.672 37.2271 23.3567 36.1871 23.79C35.1645 24.2233 34.0378 24.44 32.8071 24.44C32.3738 24.44 31.8625 24.3793 31.2731 24.258C30.6838 24.154 30.1378 24.024 29.6351 23.868C29.1498 23.712 28.8118 23.556 28.6211 23.4C28.2225 23.192 27.9538 22.9493 27.8151 22.672C27.6938 22.3947 27.7025 22.1173 27.8411 21.84C27.9971 21.4587 28.2225 21.2247 28.5171 21.138C28.8118 21.0513 29.1498 21.0773 29.5311 21.216C29.7045 21.268 29.9731 21.3633 30.3371 21.502C30.7011 21.6407 31.1085 21.762 31.5591 21.866C32.0098 21.9873 32.4345 22.048 32.8331 22.048C34.2198 22.048 35.2598 21.7273 35.9531 21.086C36.6638 20.4447 37.0191 19.5693 37.0191 18.46V16.12L37.3311 16.302C37.2791 16.666 37.1145 17.0387 36.8371 17.42C36.5598 17.784 36.2045 18.122 35.7711 18.434C35.3378 18.746 34.8438 19.006 34.2891 19.214C33.7345 19.4047 33.1538 19.5 32.5471 19.5C31.3338 19.5 30.2331 19.1967 29.2451 18.59C28.2745 17.966 27.5031 17.1253 26.9311 16.068C26.3591 14.9933 26.0731 13.7627 26.0731 12.376C26.0731 10.9893 26.3591 9.76733 26.9311 8.71C27.5031 7.63533 28.2658 6.79467 29.2191 6.188C30.1898 5.564 31.2731 5.252 32.4691 5.252ZM32.8591 7.644C32.0271 7.644 31.2818 7.852 30.6231 8.268C29.9818 8.684 29.4791 9.24733 29.1151 9.958C28.7685 10.6687 28.5951 11.4747 28.5951 12.376C28.5951 13.2773 28.7685 14.0833 29.1151 14.794C29.4791 15.5047 29.9818 16.068 30.6231 16.484C31.2818 16.9 32.0271 17.108 32.8591 17.108C33.7085 17.108 34.4538 16.9087 35.0951 16.51C35.7365 16.094 36.2391 15.5307 36.6031 14.82C36.9671 14.092 37.1491 13.2773 37.1491 12.376C37.1491 11.4747 36.9671 10.6687 36.6031 9.958C36.2391 9.23 35.7365 8.66667 35.0951 8.268C34.4538 7.852 33.7085 7.644 32.8591 7.644Z" fill="#1B1C20"/>
<path d="M54.2317 5.356C54.5957 5.356 54.8991 5.486 55.1417 5.746C55.4017 5.98867 55.5317 6.30067 55.5317 6.682V17.914C55.5317 18.2953 55.4017 18.616 55.1417 18.876C54.8991 19.1187 54.5957 19.24 54.2317 19.24C53.8504 19.24 53.5384 19.1187 53.2957 18.876C53.0531 18.616 52.9317 18.2953 52.9317 17.914V16.042L53.4517 16.12C53.4517 16.432 53.3217 16.7787 53.0617 17.16C52.8191 17.5413 52.4811 17.914 52.0477 18.278C51.6144 18.6247 51.1031 18.9193 50.5137 19.162C49.9244 19.3873 49.2917 19.5 48.6157 19.5C47.4197 19.5 46.3451 19.1967 45.3917 18.59C44.4384 17.966 43.6844 17.1167 43.1297 16.042C42.5751 14.9673 42.2977 13.7453 42.2977 12.376C42.2977 10.972 42.5751 9.74133 43.1297 8.684C43.6844 7.60933 44.4297 6.76867 45.3657 6.162C46.3191 5.55533 47.3764 5.252 48.5377 5.252C49.2831 5.252 49.9677 5.37333 50.5917 5.616C51.2331 5.85867 51.7877 6.17067 52.2557 6.552C52.7237 6.93333 53.0877 7.34067 53.3477 7.774C53.6077 8.19 53.7377 8.58867 53.7377 8.97L52.9317 9.048V6.682C52.9317 6.318 53.0531 6.006 53.2957 5.746C53.5384 5.486 53.8504 5.356 54.2317 5.356ZM48.9277 17.108C49.7424 17.108 50.4531 16.9 51.0597 16.484C51.6837 16.068 52.1691 15.5047 52.5157 14.794C52.8624 14.066 53.0357 13.26 53.0357 12.376C53.0357 11.4747 52.8624 10.6687 52.5157 9.958C52.1691 9.24733 51.6837 8.684 51.0597 8.268C50.4531 7.852 49.7424 7.644 48.9277 7.644C48.1304 7.644 47.4197 7.852 46.7957 8.268C46.1717 8.684 45.6864 9.24733 45.3397 9.958C44.9931 10.6687 44.8197 11.4747 44.8197 12.376C44.8197 13.26 44.9931 14.066 45.3397 14.794C45.6864 15.5047 46.1631 16.068 46.7697 16.484C47.3937 16.9 48.1131 17.108 48.9277 17.108Z" fill="#1B1C20"/>
<path d="M73.1736 4.42L67.3235 18.46C67.2195 18.7373 67.0635 18.954 66.8555 19.11C66.6475 19.266 66.4135 19.344 66.1535 19.344C65.7722 19.344 65.4862 19.24 65.2955 19.032C65.1049 18.8067 65.0009 18.5293 64.9836 18.2C64.9836 18.0787 65.0096 17.94 65.0616 17.784L71.6655 1.82C71.7869 1.52533 71.9602 1.3 72.1855 1.144C72.4282 0.987999 72.6882 0.918666 72.9655 0.935999C73.2255 0.935999 73.4682 1.014 73.6935 1.17C73.9189 1.326 74.0835 1.54267 74.1875 1.82L80.7135 17.55C80.7829 17.7233 80.8176 17.8967 80.8176 18.07C80.8176 18.4513 80.6876 18.7633 80.4276 19.006C80.1849 19.2313 79.9076 19.344 79.5956 19.344C79.3356 19.344 79.0929 19.266 78.8676 19.11C78.6596 18.9367 78.5036 18.72 78.3996 18.46L72.4975 4.498L73.1736 4.42ZM68.3635 14.768L69.5336 12.272H76.8915L77.3335 14.768H68.3635Z" fill="#1B1C20"/>
<path d="M82.2632 17.108C82.1072 16.8653 82.0379 16.588 82.0552 16.276C82.0725 15.9467 82.2545 15.6693 82.6012 15.444C82.8438 15.288 83.0952 15.2273 83.3552 15.262C83.6325 15.2793 83.8925 15.4093 84.1352 15.652C84.6205 16.1893 85.1579 16.614 85.7472 16.926C86.3539 17.238 87.0818 17.394 87.9312 17.394C88.2778 17.3767 88.6332 17.3247 88.9972 17.238C89.3612 17.134 89.6732 16.9607 89.9332 16.718C90.1932 16.458 90.3232 16.0853 90.3232 15.6C90.3232 15.1667 90.1845 14.82 89.9072 14.56C89.6298 14.3 89.2659 14.092 88.8152 13.936C88.3645 13.7627 87.8792 13.6067 87.3592 13.468C86.8045 13.312 86.2412 13.1387 85.6692 12.948C85.1145 12.7573 84.6119 12.5147 84.1612 12.22C83.7105 11.908 83.3378 11.5093 83.0432 11.024C82.7658 10.5387 82.6272 9.94067 82.6272 9.23C82.6272 8.41533 82.8525 7.71333 83.3032 7.124C83.7712 6.53467 84.3692 6.07533 85.0972 5.746C85.8425 5.41667 86.6485 5.252 87.5152 5.252C88.0178 5.252 88.5465 5.32133 89.1012 5.46C89.6558 5.58133 90.1932 5.78067 90.7132 6.058C91.2332 6.33533 91.6839 6.69933 92.0652 7.15C92.2385 7.37533 92.3338 7.644 92.3512 7.956C92.3858 8.268 92.2472 8.54533 91.9352 8.788C91.7272 8.96133 91.4758 9.03933 91.1812 9.022C90.8865 9.00467 90.6439 8.90933 90.4532 8.736C90.1239 8.32 89.6992 7.99933 89.1792 7.774C88.6592 7.53133 88.0699 7.41 87.4112 7.41C87.0819 7.41 86.7352 7.462 86.3712 7.566C86.0245 7.65267 85.7298 7.81733 85.4872 8.06C85.2445 8.30267 85.1232 8.658 85.1232 9.126C85.1232 9.55933 85.2619 9.906 85.5392 10.166C85.8339 10.426 86.2152 10.6427 86.6832 10.816C87.1512 10.9893 87.6625 11.1453 88.2172 11.284C88.7545 11.4227 89.2832 11.5873 89.8032 11.778C90.3405 11.9687 90.8172 12.22 91.2332 12.532C91.6665 12.8267 92.0132 13.2167 92.2732 13.702C92.5505 14.17 92.6892 14.768 92.6892 15.496C92.6892 16.3453 92.4378 17.0733 91.9352 17.68C91.4498 18.2693 90.8259 18.72 90.0632 19.032C89.3179 19.344 88.5292 19.5 87.6972 19.5C86.7092 19.5 85.7212 19.3267 84.7332 18.98C83.7625 18.616 82.9392 17.992 82.2632 17.108Z" fill="#1B1C20"/>
<path d="M102.375 5.33C103.589 5.33 104.663 5.63333 105.599 6.24C106.553 6.84667 107.307 7.67867 107.861 8.736C108.416 9.776 108.693 10.9893 108.693 12.376C108.693 13.7627 108.416 14.9933 107.861 16.068C107.307 17.1253 106.561 17.9573 105.625 18.564C104.689 19.1707 103.632 19.474 102.453 19.474C101.795 19.474 101.171 19.37 100.581 19.162C99.9919 18.954 99.4719 18.6853 99.0212 18.356C98.5705 18.0093 98.1979 17.6453 97.9032 17.264C97.6259 16.8827 97.4525 16.5273 97.3832 16.198L98.0852 15.86V23.114C98.0852 23.4953 97.9552 23.8073 97.6952 24.05C97.4525 24.31 97.1492 24.44 96.7852 24.44C96.4039 24.44 96.0919 24.31 95.8492 24.05C95.6065 23.8073 95.4852 23.4953 95.4852 23.114V6.838C95.4852 6.474 95.6065 6.162 95.8492 5.902C96.0919 5.642 96.4039 5.512 96.7852 5.512C97.1492 5.512 97.4525 5.642 97.6952 5.902C97.9552 6.162 98.0852 6.474 98.0852 6.838V8.632L97.6692 8.398C97.7212 8.06867 97.8859 7.73067 98.1632 7.384C98.4405 7.02 98.7872 6.682 99.2032 6.37C99.6365 6.058 100.122 5.80667 100.659 5.616C101.214 5.42533 101.786 5.33 102.375 5.33ZM102.089 7.722C101.257 7.722 100.529 7.93 99.9052 8.346C99.2985 8.74467 98.8219 9.29067 98.4752 9.984C98.1285 10.6773 97.9552 11.4747 97.9552 12.376C97.9552 13.26 98.1285 14.066 98.4752 14.794C98.8219 15.5047 99.2985 16.068 99.9052 16.484C100.529 16.8827 101.257 17.082 102.089 17.082C102.904 17.082 103.615 16.8827 104.221 16.484C104.828 16.068 105.305 15.5047 105.651 14.794C106.015 14.066 106.197 13.26 106.197 12.376C106.197 11.492 106.015 10.7033 105.651 10.01C105.305 9.29933 104.828 8.74467 104.221 8.346C103.615 7.93 102.904 7.722 102.089 7.722Z" fill="#1B1C20"/>
<path d="M112.807 19.24C112.425 19.24 112.113 19.1187 111.871 18.876C111.628 18.616 111.507 18.2953 111.507 17.914V6.89C111.507 6.50867 111.628 6.19667 111.871 5.954C112.113 5.694 112.425 5.564 112.807 5.564C113.171 5.564 113.474 5.694 113.717 5.954C113.977 6.19667 114.107 6.50867 114.107 6.89V9.802L113.847 8.684C113.985 8.19867 114.193 7.748 114.471 7.332C114.765 6.916 115.112 6.552 115.511 6.24C115.909 5.928 116.351 5.68533 116.837 5.512C117.339 5.33867 117.859 5.252 118.397 5.252C118.847 5.252 119.237 5.37333 119.567 5.616C119.896 5.85867 120.061 6.162 120.061 6.526C120.061 6.994 119.939 7.34067 119.697 7.566C119.454 7.774 119.185 7.878 118.891 7.878C118.631 7.878 118.379 7.826 118.137 7.722C117.894 7.60067 117.608 7.54 117.279 7.54C116.915 7.54 116.542 7.63533 116.161 7.826C115.779 8.01667 115.433 8.30267 115.121 8.684C114.809 9.048 114.557 9.48133 114.367 9.984C114.193 10.4867 114.107 11.05 114.107 11.674V17.914C114.107 18.2953 113.977 18.616 113.717 18.876C113.474 19.1187 113.171 19.24 112.807 19.24Z" fill="#1B1C20"/>
<path d="M134.79 12.402C134.79 13.7887 134.478 15.0193 133.854 16.094C133.247 17.1513 132.424 17.9833 131.384 18.59C130.344 19.1967 129.174 19.5 127.874 19.5C126.591 19.5 125.421 19.1967 124.364 18.59C123.324 17.9833 122.492 17.1513 121.868 16.094C121.261 15.0193 120.958 13.7887 120.958 12.402C120.958 10.998 121.261 9.76733 121.868 8.71C122.492 7.63533 123.324 6.79467 124.364 6.188C125.421 5.564 126.591 5.252 127.874 5.252C129.174 5.252 130.344 5.564 131.384 6.188C132.424 6.79467 133.247 7.63533 133.854 8.71C134.478 9.76733 134.79 10.998 134.79 12.402ZM132.19 12.402C132.19 11.4487 131.999 10.6253 131.618 9.932C131.237 9.22133 130.717 8.66667 130.058 8.268C129.417 7.852 128.689 7.644 127.874 7.644C127.077 7.644 126.349 7.852 125.69 8.268C125.049 8.66667 124.529 9.22133 124.13 9.932C123.749 10.6253 123.558 11.4487 123.558 12.402C123.558 13.3207 123.749 14.1353 124.13 14.846C124.529 15.5567 125.049 16.1113 125.69 16.51C126.349 16.9087 127.077 17.108 127.874 17.108C128.689 17.108 129.417 16.9087 130.058 16.51C130.717 16.1113 131.237 15.5567 131.618 14.846C131.999 14.1353 132.19 13.3207 132.19 12.402Z" fill="#1B1C20"/>
</svg>
